<svg width="24" height="25" viewBox="0 0 24 25" fill="none" xmlns="http://www.w3.org/2000/svg">
<path d="M20.2501 14.4853V18.7353C20.2501 19.8293 19.4631 20.7713 18.3781 20.9153C16.2911 21.1923 14.1621 21.3353 12.0001 21.3353C9.83806 21.3353 7.70906 21.1923 5.62206 20.9153C4.53706 20.7713 3.75006 19.8293 3.75006 18.7353V14.4853M20.2501 14.4853C20.4875 14.279 20.6775 14.0237 20.807 13.737C20.9364 13.4502 21.0023 13.1389 21.0001 12.8243V9.04133C21.0001 7.96033 20.2321 7.02633 19.1631 6.86633C18.0304 6.69675 16.892 6.56766 15.7501 6.47933M20.2501 14.4853C20.0561 14.6503 19.8301 14.7803 19.5771 14.8653C17.1333 15.6762 14.5748 16.0881 12.0001 16.0853C9.35206 16.0853 6.80506 15.6563 4.42306 14.8653C4.17631 14.7832 3.94778 14.6542 3.75006 14.4853M3.75006 14.4853C3.5126 14.279 3.32262 14.0237 3.19315 13.737C3.06369 13.4502 2.99782 13.1389 3.00006 12.8243V9.04133C3.00006 7.96033 3.76806 7.02633 4.83706 6.86633C5.96975 6.69674 7.10814 6.56766 8.25006 6.47933M15.7501 6.47933V5.58533C15.7501 4.98859 15.513 4.41629 15.091 3.99434C14.6691 3.57238 14.0968 3.33533 13.5001 3.33533H10.5001C9.90332 3.33533 9.33102 3.57238 8.90907 3.99434C8.48711 4.41629 8.25006 4.98859 8.25006 5.58533V6.47933M15.7501 6.47933C13.2538 6.2864 10.7463 6.2864 8.25006 6.47933M12.0001 13.0853H12.0081V13.0933H12.0001V13.0853Z" stroke="#81A08F" stroke-width="1.5" stroke-linecap="round" stroke-linejoin="round"/>
</svg>
