<svg width="20" height="15" viewBox="0 0 20 15" fill="none" xmlns="http://www.w3.org/2000/svg">
<path d="M19.0508 6.05321L13.8041 4.10812L11.6109 1.26782C11.4202 1.02733 11.18 0.83365 10.9077 0.700841C10.6354 0.568032 10.3379 0.499427 10.0366 0.500004H4.61079C4.27894 0.499889 3.95211 0.583508 3.65879 0.743569C3.36546 0.903631 3.11455 1.13528 2.92793 1.41831L1.08764 4.20611C0.704355 4.7863 0.499562 5.47221 0.500001 6.1743V11.6988C0.500001 11.8844 0.571493 12.0625 0.69875 12.1937C0.826006 12.325 0.998604 12.3987 1.17857 12.3987H2.63207C2.77968 12.9994 3.11727 13.5322 3.59142 13.9128C4.06557 14.2934 4.64921 14.5 5.25 14.5C5.85079 14.5 6.43443 14.2934 6.90858 13.9128C7.38273 13.5322 7.72032 12.9994 7.86793 12.3987H12.1321C12.2797 12.9994 12.6173 13.5322 13.0914 13.9128C13.5656 14.2934 14.1492 14.5 14.75 14.5C15.3508 14.5 15.9344 14.2934 16.4086 13.9128C16.8827 13.5322 17.2203 12.9994 17.3679 12.3987H18.8214C19.0014 12.3987 19.174 12.325 19.3013 12.1937C19.4285 12.0625 19.5 11.8844 19.5 11.6988V6.71184C19.5 6.56771 19.4568 6.4271 19.3764 6.30922C19.296 6.19133 19.1823 6.10193 19.0508 6.05321ZM5.25 13.0987C4.98158 13.0987 4.71919 13.0166 4.49601 12.8627C4.27283 12.7089 4.09888 12.4903 3.99616 12.2345C3.89345 11.9787 3.86657 11.6973 3.91893 11.4257C3.9713 11.1542 4.10056 10.9047 4.29036 10.709C4.48016 10.5132 4.72198 10.3799 4.98524 10.3259C5.2485 10.2718 5.52137 10.2996 5.76936 10.4055C6.01734 10.5115 6.2293 10.6909 6.37842 10.9211C6.52755 11.1513 6.60714 11.4219 6.60714 11.6988C6.60661 12.0699 6.46345 12.4256 6.20905 12.688C5.95465 12.9504 5.60977 13.0981 5.25 13.0987ZM14.75 13.0987C14.4816 13.0987 14.2192 13.0166 13.996 12.8627C13.7728 12.7089 13.5989 12.4903 13.4962 12.2345C13.3934 11.9787 13.3666 11.6973 13.4189 11.4257C13.4713 11.1542 13.6006 10.9047 13.7904 10.709C13.9802 10.5132 14.222 10.3799 14.4852 10.3259C14.7485 10.2718 15.0214 10.2996 15.2694 10.4055C15.5173 10.5115 15.7293 10.6909 15.8784 10.9211C16.0275 11.1513 16.1071 11.4219 16.1071 11.6988C16.1068 12.07 15.9637 12.4258 15.7092 12.6882C15.4548 12.9507 15.1098 13.0983 14.75 13.0987ZM18.1429 10.9989H17.3679C17.2203 10.3982 16.8827 9.8654 16.4086 9.48482C15.9344 9.10425 15.3508 8.89762 14.75 8.89762C14.1492 8.89762 13.5656 9.10425 13.0914 9.48482C12.6173 9.8654 12.2797 10.3982 12.1321 10.9989H7.86793C7.72032 10.3982 7.38273 9.8654 6.90858 9.48482C6.43443 9.10425 5.85079 8.89762 5.25 8.89762C4.64921 8.89762 4.06557 9.10425 3.59142 9.48482C3.11727 9.8654 2.77968 10.3982 2.63207 10.9989H1.85714V6.1743C1.85707 5.75286 1.98003 5.34116 2.21 4.99282L4.04961 2.20642C4.11181 2.11199 4.19547 2.03468 4.29328 1.98125C4.3911 1.92781 4.5001 1.89987 4.61079 1.89985H10.0366C10.1354 1.89945 10.233 1.92144 10.3226 1.96425C10.4122 2.00707 10.4915 2.06967 10.5551 2.14763L12.8622 5.13561C12.9407 5.2372 13.045 5.31426 13.1635 5.35819L18.1429 7.20389V10.9989Z" fill="black"/>
</svg>
