<svg width="16" height="20" viewBox="0 0 16 20" fill="none" xmlns="http://www.w3.org/2000/svg">
<path d="M2.9091 9.28506H13.0909V7.85659H2.9091V9.28506ZM2.9091 10.7135V11.7849C2.90909 12.3007 3.01255 12.8116 3.21357 13.2882C3.41459 13.7648 3.70923 14.1978 4.08066 14.5626C4.45209 14.9274 4.89305 15.2167 5.37835 15.4141C5.86366 15.6116 6.3838 15.7132 6.90909 15.7132H9.09091C9.6162 15.7132 10.1363 15.6116 10.6216 15.4141C11.1069 15.2167 11.5479 14.9274 11.9193 14.5626C12.2908 14.1978 12.5854 13.7648 12.7864 13.2882C12.9874 12.8116 13.0909 12.3007 13.0909 11.7849V10.7135H2.9091ZM2.18181 6.42811H13.8182C13.9137 6.42811 14.0083 6.44658 14.0965 6.48248C14.1847 6.51837 14.2649 6.57099 14.3325 6.63731C14.4 6.70363 14.4536 6.78237 14.4901 6.86903C14.5267 6.95569 14.5455 7.04856 14.5455 7.14236V11.7849C14.5455 13.2056 13.9708 14.5681 12.9479 15.5727C11.9249 16.5773 10.5375 17.1416 9.09091 17.1416H6.90909C5.46245 17.1416 4.07507 16.5773 3.05214 15.5727C2.02922 14.5681 1.45454 13.2056 1.45454 11.7849V7.14236C1.45454 7.04856 1.47335 6.95569 1.5099 6.86903C1.54644 6.78237 1.60001 6.70363 1.66755 6.63731C1.73508 6.57099 1.81525 6.51837 1.90349 6.48248C1.99173 6.44658 2.0863 6.42811 2.18181 6.42811ZM8 0C8.09551 0 8.19008 0.0184747 8.27832 0.0543693C8.36656 0.0902639 8.44673 0.142875 8.51426 0.2092C8.5818 0.275524 8.63537 0.354262 8.67191 0.440919C8.70846 0.527575 8.72727 0.620453 8.72727 0.714248V4.28541C8.72727 4.47483 8.65064 4.6565 8.51425 4.79044C8.37787 4.92439 8.19288 4.99963 8 4.99963C7.80712 4.99963 7.62213 4.92439 7.48574 4.79044C7.34936 4.6565 7.27273 4.47483 7.27273 4.28541V0.714248C7.27273 0.620453 7.29154 0.527575 7.32809 0.440919C7.36464 0.354262 7.41821 0.275524 7.48574 0.2092C7.55327 0.142875 7.63344 0.0902639 7.72168 0.0543693C7.80992 0.0184747 7.90449 0 8 0ZM5.09092 1.42848C5.2838 1.42848 5.46878 1.50372 5.60517 1.63767C5.74156 1.77161 5.81818 1.95328 5.81818 2.1427V4.28541C5.81818 4.47483 5.74156 4.6565 5.60517 4.79045C5.46878 4.92439 5.28379 4.99964 5.0909 4.99964C4.89802 4.99964 4.71303 4.92439 4.57664 4.79045C4.44025 4.6565 4.36363 4.47483 4.36363 4.28541V2.1427C4.36363 2.04891 4.38244 1.95603 4.41899 1.86938C4.45554 1.78272 4.50911 1.70398 4.57665 1.63766C4.64418 1.57134 4.72436 1.51873 4.8126 1.48284C4.90083 1.44694 4.99541 1.42847 5.09092 1.42848ZM10.9091 1.42848C11.0046 1.42847 11.0992 1.44694 11.1874 1.48284C11.2756 1.51873 11.3558 1.57134 11.4234 1.63766C11.4909 1.70398 11.5445 1.78272 11.581 1.86938C11.6176 1.95603 11.6364 2.04891 11.6364 2.1427V4.28541C11.6364 4.47483 11.5597 4.6565 11.4234 4.79045C11.287 4.92439 11.102 4.99964 10.9091 4.99964C10.7162 4.99964 10.5312 4.92439 10.3948 4.79045C10.2584 4.6565 10.1818 4.47483 10.1818 4.28541V2.1427C10.1818 1.95328 10.2584 1.77161 10.3948 1.63767C10.5312 1.50372 10.7162 1.42848 10.9091 1.42848ZM0.727277 18.5715H15.2727C15.4656 18.5715 15.6506 18.6468 15.787 18.7807C15.9234 18.9147 16 19.0963 16 19.2858C16 19.4752 15.9234 19.6569 15.787 19.7908C15.6506 19.9247 15.4656 20 15.2727 20H0.727277C0.534391 20 0.349405 19.9247 0.213015 19.7908C0.0766238 19.6569 0 19.4752 0 19.2858C0 19.0963 0.0766238 18.9147 0.213015 18.7807C0.349405 18.6468 0.534391 18.5715 0.727277 18.5715Z" fill="black"/>
</svg>
