<svg width="24" height="14" viewBox="0 0 24 14" fill="none" xmlns="http://www.w3.org/2000/svg">
<path fill-rule="evenodd" clip-rule="evenodd" d="M16.2 1.18179C16.2 1.02749 16.2632 0.879498 16.3757 0.770386C16.4883 0.661274 16.6409 0.599976 16.8 0.599976H19.2C19.3591 0.599976 19.5117 0.661274 19.6243 0.770386C19.7368 0.879498 19.8 1.02749 19.8 1.18179V2.34543H21.6C21.7591 2.34543 21.9117 2.40673 22.0243 2.51584C22.1368 2.62495 22.2 2.77294 22.2 2.92725V6.41816H24V7.58179H22.2V11.0727C22.2 11.227 22.1368 11.375 22.0243 11.4841C21.9117 11.5932 21.7591 11.6545 21.6 11.6545H19.8V12.8182C19.8 12.9725 19.7368 13.1205 19.6243 13.2296C19.5117 13.3387 19.3591 13.4 19.2 13.4H16.8C16.6409 13.4 16.4883 13.3387 16.3757 13.2296C16.2632 13.1205 16.2 12.9725 16.2 12.8182V7.58179H7.8V12.8182C7.8 12.9725 7.73679 13.1205 7.62426 13.2296C7.51174 13.3387 7.35913 13.4 7.2 13.4H4.8C4.64087 13.4 4.48826 13.3387 4.37574 13.2296C4.26321 13.1205 4.2 12.9725 4.2 12.8182V11.6545H2.4C2.24087 11.6545 2.08826 11.5932 1.97574 11.4841C1.86321 11.375 1.8 11.227 1.8 11.0727V7.58179H0V6.41816H1.8V2.92725C1.8 2.77294 1.86321 2.62495 1.97574 2.51584C2.08826 2.40673 2.24087 2.34543 2.4 2.34543H4.2V1.18179C4.2 1.02749 4.26321 0.879498 4.37574 0.770386C4.48826 0.661274 4.64087 0.599976 4.8 0.599976H7.2C7.35913 0.599976 7.51174 0.661274 7.62426 0.770386C7.73679 0.879498 7.8 1.02749 7.8 1.18179V6.41816H16.2V1.18179ZM5.4 12.2363H6.6V1.76361H5.4V12.2363ZM4.2 3.50907H3V10.4909H4.2V3.50907ZM19.8 10.4909V3.50907H21V10.4909H19.8ZM18.6 1.76361V12.2363H17.4V1.76361H18.6Z" fill="black"/>
</svg>
