<svg width="24" height="25" viewBox="0 0 24 25" fill="none" xmlns="http://www.w3.org/2000/svg">
<path d="M13 16.3351V17.3351C13 18.1307 12.6839 18.8938 12.1213 19.4564C11.5587 20.019 10.7956 20.3351 10 20.3351H6C5.20435 20.3351 4.44129 20.019 3.87868 19.4564C3.31607 18.8938 3 18.1307 3 17.3351V7.33508C3 6.53943 3.31607 5.77637 3.87868 5.21376C4.44129 4.65115 5.20435 4.33508 6 4.33508H10C10.7956 4.33508 11.5587 4.65115 12.1213 5.21376C12.6839 5.77637 13 6.53943 13 7.33508V8.33508M17 16.3351L21 12.3351L17 16.3351ZM21 12.3351L17 8.33508L21 12.3351ZM21 12.3351H7H21Z" stroke="#81A08F" stroke-width="2" stroke-linecap="round" stroke-linejoin="round"/>
</svg>
