<svg width="16" height="16" viewBox="0 0 16 16" fill="none" xmlns="http://www.w3.org/2000/svg">
<path d="M15.0296 5.66056C14.9296 5.68207 13.5872 5.9936 11.8672 7.07399C11.6088 5.82548 10.844 3.48782 8.5808 1.11031L8 0.5L7.4192 1.11111C5.148 3.49738 4.3864 5.84142 4.1304 7.0979C2.404 5.99918 1.072 5.68366 0.9744 5.66136L0 5.44464V6.43898C0 12.2473 3.14 16 8 16C12.7848 16 16 12.1581 16 6.43898V5.44942L15.0296 5.66056ZM5.5992 8.06276C5.6008 8.03647 5.7208 5.59283 8 2.85838C10.2512 5.56734 10.3992 8.03249 10.4 8.03249V8.13208C9.50285 8.87459 8.69483 9.71783 7.992 10.645C7.28718 9.7342 6.48485 8.90254 5.5992 8.16475V8.06276ZM8 14.4065C3.7472 14.4065 1.9608 11.0633 1.6504 7.58312C2.9744 8.15519 5.3432 9.51604 7.336 12.4616L8.0088 13.4568L8.6688 12.4529C10.6096 9.49851 13.0088 8.14164 14.3456 7.57515C14.0272 10.9438 12.2432 14.4065 8 14.4065Z" fill="black"/>
</svg>
