<svg width="24" height="25" viewBox="0 0 24 25" fill="none" xmlns="http://www.w3.org/2000/svg">
<path d="M11.35 4.17133C11.285 4.38133 11.25 4.60433 11.25 4.83533C11.25 5.24933 11.586 5.58533 12 5.58533H16.5C16.6989 5.58533 16.8897 5.50631 17.0303 5.36566C17.171 5.22501 17.25 5.03424 17.25 4.83533C17.2501 4.61024 17.2164 4.38641 17.15 4.17133M11.35 4.17133C11.492 3.71203 11.7774 3.31026 12.1643 3.02487C12.5511 2.73947 13.0192 2.58544 13.5 2.58533H15C16.012 2.58533 16.867 3.25333 17.15 4.17133M11.35 4.17133C10.974 4.19433 10.6 4.22133 10.226 4.25133C9.095 4.34533 8.25 5.30833 8.25 6.44333V8.58533M17.15 4.17133C17.526 4.19433 17.9 4.22133 18.274 4.25133C19.405 4.34533 20.25 5.30833 20.25 6.44333V16.8353C20.25 17.4321 20.0129 18.0044 19.591 18.4263C19.169 18.8483 18.5967 19.0853 18 19.0853H15.75M8.25 8.58533H4.875C4.254 8.58533 3.75 9.08933 3.75 9.71033V20.9603C3.75 21.5813 4.254 22.0853 4.875 22.0853H14.625C15.246 22.0853 15.75 21.5813 15.75 20.9603V19.0853M8.25 8.58533H14.625C15.246 8.58533 15.75 9.08933 15.75 9.71033V19.0853M7.5 16.0853L9 17.5853L12 13.8353" stroke="#81A08F" stroke-width="1.5" stroke-linecap="round" stroke-linejoin="round"/>
</svg>
