<svg width="24" height="24" viewBox="0 0 24 24" fill="none" xmlns="http://www.w3.org/2000/svg">
<path fill-rule="evenodd" clip-rule="evenodd" d="M10.7984 4.20004C9.04801 4.20004 7.36927 4.8954 6.13153 6.13314C4.89379 7.37088 4.19844 9.04962 4.19844 10.8C4.19844 12.5505 4.89379 14.2292 6.13153 15.4669C7.36927 16.7047 9.04801 17.4 10.7984 17.4C12.5489 17.4 14.2276 16.7047 15.4653 15.4669C16.7031 14.2292 17.3984 12.5505 17.3984 10.8C17.3984 9.04962 16.7031 7.37088 15.4653 6.13314C14.2276 4.8954 12.5489 4.20004 10.7984 4.20004ZM2.39844 10.8C2.39855 9.45685 2.72077 8.13326 3.33807 6.94032C3.95537 5.74737 4.84975 4.71986 5.94618 3.94396C7.04261 3.16806 8.30912 2.66641 9.63947 2.48109C10.9698 2.29577 12.3252 2.43217 13.592 2.87887C14.8587 3.32557 15.9999 4.06953 16.9197 5.04834C17.8395 6.02716 18.5112 7.21229 18.8784 8.50431C19.2456 9.79634 19.2977 11.1576 19.0301 12.4739C18.7626 13.7902 18.1833 15.0231 17.3408 16.0692L21.3344 20.064C21.4229 20.1464 21.4938 20.2458 21.543 20.3562C21.5922 20.4666 21.6186 20.5858 21.6207 20.7066C21.6229 20.8275 21.6006 20.9475 21.5554 21.0596C21.5101 21.1716 21.4427 21.2734 21.3573 21.3589C21.2718 21.4444 21.17 21.5117 21.058 21.557C20.9459 21.6023 20.8259 21.6245 20.705 21.6224C20.5842 21.6202 20.465 21.5938 20.3546 21.5446C20.2442 21.4954 20.1448 21.4245 20.0624 21.336L16.0676 17.3424C14.8335 18.3365 13.3433 18.9612 11.7692 19.1443C10.1952 19.3275 8.60138 19.0616 7.17198 18.3775C5.74257 17.6933 4.53584 16.6188 3.69117 15.278C2.84649 13.9371 2.39833 12.3847 2.39844 10.8Z" fill="#646D89"/>
</svg>
