<svg width="18" height="14" viewBox="0 0 18 14" fill="none" xmlns="http://www.w3.org/2000/svg">
<path d="M13.2359 9.13712C12.1066 8.17394 10.6317 7.59091 9.0161 7.59091C7.40052 7.59091 5.92559 8.17394 4.79429 9.13909C4.76304 9.1667 4.74392 9.20509 4.74092 9.24622C4.73793 9.28735 4.75129 9.32802 4.77821 9.3597L5.50161 10.2047C5.55988 10.2717 5.66236 10.2795 5.73068 10.2224C6.60679 9.46606 7.75618 9.00909 9.0161 9.00909C10.276 9.00909 11.4254 9.46606 12.3015 10.2205C12.3698 10.2776 12.4723 10.2697 12.5306 10.2027L13.254 9.35773C13.3102 9.29273 13.3022 9.19424 13.2359 9.13712ZM15.595 6.37758C13.8126 4.92197 11.5198 4.04545 9.0161 4.04545C6.51235 4.04545 4.21959 4.92197 2.43522 6.37758C2.40257 6.40456 2.38214 6.44311 2.37838 6.4848C2.37461 6.5265 2.38782 6.56796 2.41512 6.60015L3.13852 7.44515C3.19478 7.51212 3.29726 7.52 3.36357 7.46485C4.89677 6.21606 6.86802 5.46364 9.0161 5.46364C11.1642 5.46364 13.1354 6.21606 14.6666 7.46485C14.7349 7.52 14.8354 7.51212 14.8917 7.44515L15.6151 6.60015C15.6713 6.53318 15.6633 6.43273 15.595 6.37758ZM17.94 3.6397C15.5005 1.67788 12.3779 0.5 8.97591 0.5C5.59605 0.5 2.49349 1.66212 0.0600711 3.6003C0.0433528 3.61347 0.0294909 3.62978 0.0193019 3.64828C0.009113 3.66678 0.00280293 3.68709 0.000743184 3.70801C-0.00131656 3.72893 0.000915705 3.75005 0.00730857 3.77012C0.0137014 3.79018 0.0241256 3.80879 0.0379673 3.82485L0.761362 4.66985C0.817626 4.73485 0.918097 4.7447 0.984408 4.69151C3.16866 2.95621 5.9477 1.91818 8.97591 1.91818C12.0262 1.91818 14.8233 2.97197 17.0136 4.72894C17.0819 4.78409 17.1824 4.77424 17.2387 4.70727L17.9621 3.86227C18.0203 3.7953 18.0103 3.69485 17.94 3.6397ZM7.70997 12.2394C7.70997 12.5737 7.84546 12.8944 8.08664 13.1308C8.32782 13.3672 8.65492 13.5 8.996 13.5C9.33708 13.5 9.66419 13.3672 9.90536 13.1308C10.1465 12.8944 10.282 12.5737 10.282 12.2394C10.282 11.9051 10.1465 11.5844 9.90536 11.348C9.66419 11.1116 9.33708 10.9788 8.996 10.9788C8.65492 10.9788 8.32782 11.1116 8.08664 11.348C7.84546 11.5844 7.70997 11.9051 7.70997 12.2394Z" fill="black"/>
</svg>
